<svg width="240" height="82" viewBox="0 0 240 82" fill="none" xmlns="http://www.w3.org/2000/svg">
<path d="M36.7947 80.842C34.0333 80.842 31.7947 78.6035 31.7947 75.842V34.103C31.7947 31.3416 34.0333 29.103 36.7947 29.103H54.7207C69.1127 29.103 77.7913 38.3654 77.7913 55.0087C77.7913 71.652 69.8359 80.842 55.4439 80.842H36.7947ZM49.8126 39.7403C47.0512 39.7403 44.8126 41.9789 44.8126 44.7403V65.2048C44.8126 67.9662 47.0512 70.2048 49.8126 70.2048H53.4189C61.5189 70.2048 64.7734 64.4158 64.7734 55.0087C64.7734 45.6016 61.5189 39.7403 53.4189 39.7403H49.8126Z" fill="white"/>
<path d="M104.998 54.068C104.998 51.8971 103.48 50.5946 100.298 50.5946C96.1029 50.5946 94.0779 52.1866 93.7163 55.7323H88.1294C85.268 55.7323 82.8771 53.2414 84.0795 50.6449C86.2353 45.9895 91.3434 42.6348 100.37 42.6348C110.784 42.6348 116.57 46.6871 116.57 58.3374V75.3425C116.57 75.8377 116.616 76.2586 116.709 76.6109C117.097 78.0794 118.74 79.3234 118.74 80.842C116.425 81.7104 114.328 81.9998 112.014 81.9998C106.807 81.9998 105.36 79.5395 105.36 76.9345H105.215C102.829 79.6842 98.4895 81.9998 93.5716 81.9998C85.7609 81.9998 81.4216 77.5857 81.4216 71.3626C81.4216 63.9816 86.8457 60.5806 95.5243 58.8439C100.298 57.9032 104.998 57.1796 104.998 54.068ZM97.6216 74.04C102.612 74.04 104.998 70.856 104.998 67.3103C104.998 65.1616 102.796 63.6176 100.706 64.1167C100.198 64.2381 99.654 64.3614 99.0681 64.4882C94.5118 65.5012 92.993 67.3827 92.993 69.6982C92.993 72.7375 94.8011 74.04 97.6216 74.04Z" fill="white"/>
<path d="M147.794 42.6348C155.605 42.6348 160.45 47.3383 160.45 55.8047V80.842H148.879V59.4952C148.879 53.9233 147.071 52.0419 142.876 52.0419C139.187 52.0419 136.15 54.2851 136.15 59.4228V80.842H124.578V29.103C130.969 29.103 136.15 34.2838 136.15 40.6745V49.1474H136.295C138.247 45.7463 141.863 42.6348 147.794 42.6348Z" fill="white"/>
<path d="M167.343 29.103C173.734 29.103 178.915 34.2838 178.915 40.6745V80.842H167.343V29.103Z" fill="white"/>
<path d="M185.738 43.7926C192.129 43.7926 197.31 48.9733 197.31 55.3641V80.842H185.738V43.7926Z" fill="white"/>
<path d="M226.259 54.068C226.259 51.8971 224.74 50.5946 221.558 50.5946C217.363 50.5946 215.338 52.1866 214.977 55.7323H209.39C206.528 55.7323 204.138 53.2414 205.34 50.6449C207.496 45.9895 212.604 42.6348 221.63 42.6348C232.045 42.6348 237.83 46.6871 237.83 58.3374V75.3425C237.83 75.8377 237.877 76.2586 237.97 76.6109C238.357 78.0794 240 79.3234 240 80.842C237.686 81.7104 235.588 81.9998 233.274 81.9998C228.067 81.9998 226.621 79.5395 226.621 76.9345H226.476C224.089 79.6842 219.75 81.9998 214.832 81.9998C207.021 81.9998 202.682 77.5857 202.682 71.3626C202.682 63.9816 208.106 60.5806 216.785 58.8439C221.558 57.9032 226.259 57.1796 226.259 54.068ZM218.882 74.04C223.872 74.04 226.259 70.856 226.259 67.3103C226.259 65.1616 224.057 63.6176 221.967 64.1167C221.459 64.2381 220.915 64.3614 220.329 64.4882C215.772 65.5012 214.254 67.3827 214.254 69.6982C214.254 72.7375 216.062 74.04 218.882 74.04Z" fill="white"/>
<path d="M202.13 24.6791C203.207 25.8832 204.795 28.188 203.624 30.7601C201.392 35.6658 197.987 38.1124 194.633 39.1691C191.285 40.2235 187.996 39.8919 185.983 39.2584L185.86 39.1212C185.454 37.049 185.489 33.7416 186.907 30.5298C188.328 27.311 191.135 24.1961 196.255 22.5195C198.94 21.6405 201.053 23.475 202.13 24.6791L198.432 28.2224C199.485 26.1164 198.096 24.5068 195.635 25.3124C190.613 26.957 189.722 29.7951 188.61 31.7324C187.249 34.8147 187.545 36.7943 187.813 37.6201C188.481 37.8406 190.308 38.3602 193.521 37.3483C195.568 36.4573 198.826 36.141 201.016 31.3286C202.088 28.9713 200.537 27.1694 198.432 28.2224L202.13 24.6791Z" fill="url(#paint0_linear_44_533)"/>
<path d="M19.0121 2.93871C20.5645 2.26236 23.3803 1.43902 25.5545 3.45128C29.7012 7.28929 31.0151 11.4861 30.9627 15.1754C30.9103 18.8568 29.498 22.0239 28.2051 23.821L28.0283 23.8981C25.8327 23.6208 22.5533 22.4978 19.8241 20.0284C17.089 17.5536 14.9134 13.7321 14.93 8.08026C14.9387 5.11698 17.4597 3.61512 19.0121 2.93871L21.3209 7.78814C19.5718 6.04681 17.5131 6.90083 17.505 9.61651C17.4887 15.1609 20.0194 16.9826 21.5811 18.7275C24.2003 21.0973 26.2674 21.4539 27.1772 21.459C27.6164 20.8662 28.7349 19.2165 28.7852 15.6833C28.5724 13.3507 29.3295 10.0021 25.2616 6.23704C23.2691 4.39295 20.9658 5.34499 21.3209 7.78814L19.0121 2.93871Z" fill="url(#paint1_linear_44_533)"/>
<path d="M48.5378 6.77634C49.8506 7.84632 51.8734 9.97217 51.0836 12.8282C49.5772 18.2755 46.4528 21.3688 43.1522 23.0144C39.8588 24.6565 36.3983 24.8536 34.2093 24.5285L34.0597 24.4066C33.2988 22.3274 32.7918 18.8966 33.733 15.3373C34.6763 11.7704 37.0722 8.0832 42.0992 5.50545C44.7348 4.15394 47.225 5.70639 48.5378 6.77634L45.2901 11.0535C46.0342 8.69961 44.3315 7.26101 41.916 8.49956C36.9846 11.0283 36.5276 14.1138 35.6943 16.3028C34.7911 19.7185 35.4226 21.7199 35.8354 22.5311C36.5633 22.6497 38.5415 22.8874 41.7023 21.3115C43.6763 20.0523 46.9975 19.1894 48.4753 13.8457C49.199 11.2283 47.297 9.61712 45.2901 11.0535L48.5378 6.77634Z" fill="url(#paint2_linear_44_533)"/>
<path d="M1.30926 25.0377C1.61062 23.3706 2.49237 20.571 5.37285 19.8819C10.8667 18.5675 15.0836 19.8083 18.1192 21.9033C21.1482 23.9938 22.9937 26.9294 23.7677 29.0038L23.7334 29.1937C22.2823 30.8654 19.526 32.9683 15.9571 33.8648C12.3804 34.7633 7.99627 34.4477 3.31055 31.2913C0.853813 29.6364 1.00797 26.7048 1.30926 25.0377L6.62145 25.814C4.20234 26.3004 3.76707 28.4874 6.01851 30.004C10.6151 33.1005 13.5355 32.0088 15.8534 31.6803C19.2783 30.8199 20.724 29.299 21.234 28.5453C20.9858 27.8504 20.2373 26.0029 17.3303 23.9966C15.2743 22.8765 12.9136 20.385 7.52413 21.6744C4.88435 22.306 4.39448 24.7509 6.62145 25.814L1.30926 25.0377Z" fill="url(#paint3_linear_44_533)"/>
<path d="M12.4479 52.1105C11.1265 51.0512 9.08648 48.9418 9.85308 46.0795C11.3153 40.6202 14.4145 37.5016 17.7016 35.8292C20.9816 34.1604 24.4404 33.9352 26.632 34.2425L26.7825 34.3632C27.5603 36.4362 28.095 39.8628 27.1827 43.4295C26.2684 47.004 23.9025 50.7105 18.8966 53.329C16.272 54.7019 13.7693 53.1697 12.4479 52.1105L15.6608 47.807C14.9358 50.1669 16.6501 51.5917 19.0555 50.3335C23.9662 47.7648 24.3982 44.6757 25.2137 42.48C26.0892 39.0571 25.4415 37.0609 25.0221 36.2531C24.2932 36.1404 22.3132 35.9187 19.1653 37.5203C17.2015 38.7955 13.8875 39.6853 12.4531 45.0409C11.7506 47.664 13.6656 49.2597 15.6608 47.807L12.4479 52.1105Z" fill="url(#paint4_linear_44_533)"/>
<defs>
<linearGradient id="paint0_linear_44_533" x1="185.803" y1="39.4543" x2="202.299" y2="25.0726" gradientUnits="userSpaceOnUse">
<stop offset="0.451923" stop-color="#FC82A4"/>
<stop offset="1" stop-color="#451D94"/>
</linearGradient>
<linearGradient id="paint1_linear_44_533" x1="28.3411" y1="24.064" x2="19.4391" y2="2.90834" gradientUnits="userSpaceOnUse">
<stop offset="0.451923" stop-color="#FC82A4"/>
<stop offset="1" stop-color="#451D94"/>
</linearGradient>
<linearGradient id="paint2_linear_44_533" x1="34.0557" y1="24.7608" x2="48.7773" y2="7.15599" gradientUnits="userSpaceOnUse">
<stop offset="0.451923" stop-color="#FC82A4"/>
<stop offset="1" stop-color="#451D94"/>
</linearGradient>
<linearGradient id="paint3_linear_44_533" x1="24.0452" y1="29.0259" x2="1.52227" y2="24.6614" gradientUnits="userSpaceOnUse">
<stop offset="0.451923" stop-color="#FC82A4"/>
<stop offset="1" stop-color="#451D94"/>
</linearGradient>
<linearGradient id="paint4_linear_44_533" x1="26.7836" y1="34.009" x2="12.2053" y2="51.7328" gradientUnits="userSpaceOnUse">
<stop offset="0.451923" stop-color="#FC82A4"/>
<stop offset="1" stop-color="#451D94"/>
</linearGradient>
</defs>
</svg>
